
<svg xmlns="http://www.w3.org/2000/svg" viewBox="0 0 24 24" fill="none" stroke="#4CAF50" stroke-width="2" stroke-linecap="round" stroke-linejoin="round">
  <path d="M5.88 4.86a3 3 0 1 0 4.24 4.24a3 3 0 1 0-4.24-4.24z"></path>
  <path d="M13.76 4.86a3 3 0 1 0 4.24 4.24a3 3 0 1 0-4.24-4.24z"></path>
  <path d="M5.88 14.86a3 3 0 1 0 4.24 4.24a3 3 0 1 0-4.24-4.24z"></path>
  <path d="M13.76 14.86a3 3 0 1 0 4.24 4.24a3 3 0 1 0-4.24-4.24z"></path>
  <path d="M12 10a2 2 0 0 0-2 2v4a2 2 0 0 0 2 2v0a2 2 0 0 0 2-2v-4a2 2 0 0 0-2-2z"></path>
</svg>
